# xmcd
#
# Track frame offsets: 
#        150
#        47138
#        65311
#        87061
#        104780
#        146555
#        161029
#        176680
#        214760
#        243506
#        263104
#        306990
#        320172
#        342286
#
# Disc length: 4671 seconds
#
# Revision: 0
# Processed by: cddbd v1.5.1PL0 Copyright (c) Steve Scherf et al.
# Submitted via: ExactAudioCopy v0.95a5
#
DISCID=d5123d0e
DTITLE=Yonder Mountain String Band - Live - Carroboro, NC (4-19-01) - 
DTITLE=CD2
DYEAR=2001
DGENRE=Bluegrass
TTITLE0=Boatman
TTITLE1=Bolton Stretch
TTITLE2=I Had Someone Before You
TTITLE3=Dominated Love Slave
TTITLE4=Mother's Only Son
TTITLE5=Lost John
TTITLE6=California Cotton Fields
TTITLE7=Elzik's Farewell
TTITLE8=Yes She Do, No She Don't
TTITLE9=Mental Breakdown
TTITLE10=On the Road
TTITLE11=Shady Grove
TTITLE12=--
TTITLE13=Shady Grove II
EXTD=
EXTT0=
EXTT1=
EXTT2=
EXTT3=
EXTT4=
EXTT5=
EXTT6=
EXTT7=
EXTT8=
EXTT9=
EXTT10=
EXTT11=
EXTT12=
EXTT13=
PLAYORDER=
